<?xml version="1.0" encoding="UTF-8"?>
<svg xmlns="http://www.w3.org/2000/svg" xmlns:xlink="http://www.w3.org/1999/xlink" width="48pt" height="48pt" viewBox="0 0 48 48" version="1.1">
<g id="surface12729909">
<path style="fill-rule:nonzero;fill:rgb(100%,34.117647%,13.333333%);fill-opacity:1;stroke-width:10;stroke-linecap:butt;stroke-linejoin:round;stroke:rgb(100%,100%,100%);stroke-opacity:1;stroke-miterlimit:10;" d="M 35.831556 79.408634 C 36.912836 76.149981 39.016149 71.810047 43.000592 68.225529 L 43.000592 118.319913 C 40.364046 118.319913 37.964492 118.319913 35.831556 118.319913 Z M 75.246445 118.305101 C 71.587867 118.305101 68.003348 118.305101 64.49289 118.305101 L 64.49289 61.871156 C 68.966132 62.315518 72.832079 63.737475 75.246445 64.878004 Z M 50.169629 63.781911 C 53.132041 62.596947 56.716559 61.885968 60.923184 61.782283 L 60.923184 118.319913 C 57.160921 118.319913 53.546779 118.319913 50.169629 118.319913 Z M 14.339258 114.291033 C 10.014137 111.002756 7.170222 105.981468 7.170222 100.308449 C 7.170222 94.250317 10.117821 89.036472 14.339258 85.837067 Z M 165.422261 98.767995 C 165.422261 117.979236 144.403949 118.305101 144.403949 118.305101 C 144.403949 118.305101 110.45471 118.305101 78.830963 118.305101 L 78.830963 64.300333 C 81.023148 60.03446 87.910756 50.347374 105.49267 50.347374 C 135.70927 50.347374 138.716118 80.756531 138.716118 80.756531 C 138.716118 80.756531 141.722966 78.890212 146.892375 78.890212 C 152.076596 78.890212 165.422261 83.98556 165.422261 98.767995 Z M 28.662519 118.319913 C 27.610863 118.319913 26.736952 118.319913 26.203717 118.319913 C 24.589203 118.319913 23.019125 118.097732 21.493483 117.712618 L 21.493483 82.726535 C 22.278522 82.593226 23.063561 82.459918 23.863412 82.459918 C 25.655671 82.459918 27.255374 82.593226 28.662519 82.770971 Z M 28.662519 118.319913 " transform="matrix(0.263721,0,0,0.263721,1.32,1.32)"/>
<path style=" stroke:none;fill-rule:nonzero;fill:rgb(100%,100%,100%);fill-opacity:1;" d="M 10.769531 32.523438 C 11.332031 32.523438 11.964844 32.523438 12.660156 32.523438 L 12.660156 19.3125 C 11.609375 20.257812 11.054688 21.402344 10.769531 22.261719 Z M 21.164062 18.429688 C 20.527344 18.128906 19.507812 17.753906 18.328125 17.636719 L 18.328125 32.519531 C 19.253906 32.519531 20.199219 32.519531 21.164062 32.519531 Z M 14.550781 32.523438 C 15.441406 32.523438 16.394531 32.523438 17.386719 32.523438 L 17.386719 17.613281 C 16.277344 17.640625 15.332031 17.828125 14.550781 18.140625 Z M 5.101562 23.957031 C 3.988281 24.800781 3.210938 26.175781 3.210938 27.773438 C 3.210938 29.269531 3.960938 30.59375 5.101562 31.460938 Z M 40.058594 22.125 C 38.695312 22.125 37.902344 22.617188 37.902344 22.617188 C 37.902344 22.617188 37.109375 14.597656 29.140625 14.597656 C 24.503906 14.597656 22.6875 17.152344 22.109375 18.277344 L 22.109375 32.519531 C 30.449219 32.519531 39.402344 32.519531 39.402344 32.519531 C 39.402344 32.519531 44.945312 32.433594 44.945312 27.367188 C 44.945312 23.46875 41.425781 22.125 40.058594 22.125 Z M 8.878906 23.148438 C 8.507812 23.101562 8.085938 23.066406 7.613281 23.066406 C 7.402344 23.066406 7.195312 23.101562 6.988281 23.136719 L 6.988281 32.363281 C 7.390625 32.464844 7.804688 32.523438 8.230469 32.523438 C 8.371094 32.523438 8.601562 32.523438 8.878906 32.523438 Z M 8.878906 23.148438 "/>
</g>
</svg>
